# xmcd
#
# Track frame offsets:
#	150
#	11678
#	28070
#	43303
#	44504
#	66595
#	89171
#	110220
#	124896
#	137253
#	152901
#	167336
#	180660
#
# Disc length: 2639 seconds
# Revision: 0
# Processed by: cddbd v1.5.2PL0 Copyright (c) Steve Scherf et al.
# Submitted via: dBpowerAMP V12.0
#
DISCID=bd0a4d0d
DTITLE=Various Artist - Pil2
DYEAR=2012
DGENRE=Hip Hop
TTITLE0=Ja Rule featuring Leah Siegal - Intro - Fuck Fame
TTITLE1=Ja Rule featuring Anita Louise - Real Life Fantasy
TTITLE2=Ja Rule featuring Leah Siegal - Parachute
TTITLE3=Ja Rule - Superstar (Intro)
TTITLE4=Ja Rule - Superstar
TTITLE5=Ja Rule - Black Vodka
TTITLE6=Ja Rule featuring Somong and Kenny Dark - Drown
TTITLE7=Ja Rule featuring Jon Doe - Never Had Time
TTITLE8=Ja Rule featuring 700 and Ramzo - Strange Days
TTITLE9=Ja Rule featuring Kalina of Dirty Money - To The Top
TTITLE10=Ja Rule featuring Leah Siegal - Pray 4 The Day
TTITLE11=Ja Rule - Believe
TTITLE12=Ja Rule featuring AminA - Spun A Web
EXTD=
EXTT0=
EXTT1=
EXTT2=
EXTT3=
EXTT4=
EXTT5=
EXTT6=
EXTT7=
EXTT8=
EXTT9=
EXTT10=
EXTT11=
EXTT12=
PLAYORDER=
